<mxfile host="app.diagrams.net" modified="2023-06-05T15:33:14.614Z" agent="Mozilla/5.0 (Macintosh; Intel Mac OS X 10_15_7) AppleWebKit/537.36 (KHTML, like Gecko) Chrome/113.0.0.0 Safari/537.36" etag="nKacjVWEek94iSc8Qpx7" version="21.3.6" type="device">
  <diagram name="Страница 1" id="nH6tWjzeMikvXIANyaD2">
    <mxGraphModel dx="1242" dy="710" grid="1" gridSize="10" guides="1" tooltips="1" connect="1" arrows="1" fold="1" page="1" pageScale="1" pageWidth="827" pageHeight="1169" math="0" shadow="0">
      <root>
        <mxCell id="0" />
        <mxCell id="1" parent="0" />
        <mxCell id="YxbUyfF6IQTTYFyYkA1I-9" style="edgeStyle=orthogonalEdgeStyle;rounded=0;orthogonalLoop=1;jettySize=auto;html=1;" edge="1" parent="1" source="YxbUyfF6IQTTYFyYkA1I-1" target="YxbUyfF6IQTTYFyYkA1I-5">
          <mxGeometry relative="1" as="geometry" />
        </mxCell>
        <mxCell id="YxbUyfF6IQTTYFyYkA1I-1" value="Consumer" style="rounded=1;whiteSpace=wrap;html=1;fillColor=#d5e8d4;strokeColor=#82b366;" vertex="1" parent="1">
          <mxGeometry x="520" y="240" width="120" height="60" as="geometry" />
        </mxCell>
        <mxCell id="YxbUyfF6IQTTYFyYkA1I-7" style="edgeStyle=orthogonalEdgeStyle;rounded=0;orthogonalLoop=1;jettySize=auto;html=1;entryX=0;entryY=0.5;entryDx=0;entryDy=0;" edge="1" parent="1" source="YxbUyfF6IQTTYFyYkA1I-2" target="YxbUyfF6IQTTYFyYkA1I-3">
          <mxGeometry relative="1" as="geometry" />
        </mxCell>
        <mxCell id="YxbUyfF6IQTTYFyYkA1I-2" value="Producer" style="rounded=1;whiteSpace=wrap;html=1;fillColor=#d5e8d4;strokeColor=#82b366;" vertex="1" parent="1">
          <mxGeometry x="80" y="240" width="120" height="60" as="geometry" />
        </mxCell>
        <mxCell id="YxbUyfF6IQTTYFyYkA1I-8" style="edgeStyle=orthogonalEdgeStyle;rounded=0;orthogonalLoop=1;jettySize=auto;html=1;" edge="1" parent="1" source="YxbUyfF6IQTTYFyYkA1I-3" target="YxbUyfF6IQTTYFyYkA1I-1">
          <mxGeometry relative="1" as="geometry" />
        </mxCell>
        <mxCell id="YxbUyfF6IQTTYFyYkA1I-3" value="Kafka" style="ellipse;whiteSpace=wrap;html=1;fillColor=#dae8fc;strokeColor=#6c8ebf;" vertex="1" parent="1">
          <mxGeometry x="300" y="230" width="120" height="80" as="geometry" />
        </mxCell>
        <mxCell id="YxbUyfF6IQTTYFyYkA1I-6" style="edgeStyle=orthogonalEdgeStyle;rounded=0;orthogonalLoop=1;jettySize=auto;html=1;" edge="1" parent="1" source="YxbUyfF6IQTTYFyYkA1I-4">
          <mxGeometry relative="1" as="geometry">
            <mxPoint x="120" y="300" as="targetPoint" />
            <Array as="points">
              <mxPoint x="120" y="300" />
            </Array>
          </mxGeometry>
        </mxCell>
        <mxCell id="YxbUyfF6IQTTYFyYkA1I-4" value="official-joke-api" style="rounded=1;whiteSpace=wrap;html=1;fillColor=#fff2cc;strokeColor=#d6b656;" vertex="1" parent="1">
          <mxGeometry x="80" y="370" width="120" height="60" as="geometry" />
        </mxCell>
        <mxCell id="YxbUyfF6IQTTYFyYkA1I-5" value="Mongo DB" style="shape=cylinder3;whiteSpace=wrap;html=1;boundedLbl=1;backgroundOutline=1;size=15;fillColor=#dae8fc;strokeColor=#6c8ebf;" vertex="1" parent="1">
          <mxGeometry x="545" y="350" width="70" height="100" as="geometry" />
        </mxCell>
        <mxCell id="YxbUyfF6IQTTYFyYkA1I-10" value="" style="endArrow=classic;html=1;rounded=0;entryX=0.5;entryY=0;entryDx=0;entryDy=0;strokeWidth=2;" edge="1" parent="1" target="YxbUyfF6IQTTYFyYkA1I-2">
          <mxGeometry width="50" height="50" relative="1" as="geometry">
            <mxPoint x="140" y="160" as="sourcePoint" />
            <mxPoint x="440" y="340" as="targetPoint" />
          </mxGeometry>
        </mxCell>
        <mxCell id="YxbUyfF6IQTTYFyYkA1I-12" value="Request&amp;nbsp;/jokes/random/send" style="edgeLabel;html=1;align=center;verticalAlign=middle;resizable=0;points=[];" vertex="1" connectable="0" parent="YxbUyfF6IQTTYFyYkA1I-10">
          <mxGeometry x="-0.075" y="3" relative="1" as="geometry">
            <mxPoint as="offset" />
          </mxGeometry>
        </mxCell>
        <mxCell id="YxbUyfF6IQTTYFyYkA1I-11" style="edgeStyle=orthogonalEdgeStyle;rounded=0;orthogonalLoop=1;jettySize=auto;html=1;entryX=0.75;entryY=0;entryDx=0;entryDy=0;exitX=0.75;exitY=1;exitDx=0;exitDy=0;" edge="1" parent="1">
          <mxGeometry relative="1" as="geometry">
            <mxPoint x="160" y="300" as="sourcePoint" />
            <mxPoint x="160" y="370" as="targetPoint" />
            <Array as="points">
              <mxPoint x="160" y="310" />
              <mxPoint x="160" y="310" />
            </Array>
          </mxGeometry>
        </mxCell>
        <mxCell id="YxbUyfF6IQTTYFyYkA1I-13" value="" style="endArrow=classic;html=1;rounded=0;exitX=0.5;exitY=0;exitDx=0;exitDy=0;strokeWidth=2;" edge="1" parent="1" source="YxbUyfF6IQTTYFyYkA1I-1">
          <mxGeometry width="50" height="50" relative="1" as="geometry">
            <mxPoint x="580" y="230" as="sourcePoint" />
            <mxPoint x="580" y="160" as="targetPoint" />
          </mxGeometry>
        </mxCell>
        <mxCell id="YxbUyfF6IQTTYFyYkA1I-14" value="Retrive /jokes/list" style="edgeLabel;html=1;align=center;verticalAlign=middle;resizable=0;points=[];" vertex="1" connectable="0" parent="YxbUyfF6IQTTYFyYkA1I-13">
          <mxGeometry x="-0.075" y="3" relative="1" as="geometry">
            <mxPoint as="offset" />
          </mxGeometry>
        </mxCell>
      </root>
    </mxGraphModel>
  </diagram>
</mxfile>
